<?xml version="1.0" encoding="UTF-8"?>
<svg width="160px" height="26px" viewBox="0 0 160 26" version="1.1" xmlns="http://www.w3.org/2000/svg" xmlns:xlink="http://www.w3.org/1999/xlink">
    <!-- Generator: Sketch 49.3 (51167) - http://www.bohemiancoding.com/sketch -->
    <title>logo</title>
    <desc>Created with Sketch.</desc>
    <defs>
        <linearGradient x1="0%" y1="0%" x2="100%" y2="100%" id="linearGradient-1">
            <stop stop-color="#00D7F8" offset="0%"></stop>
            <stop stop-color="#501296" offset="100%"></stop>
        </linearGradient>
        <path d="M13.3048329,0.295093703 C12.8976022,0.85276256 10.7507829,8.64896347 10.2326437,11.6052394 C10.1110569,12.2995347 9.94335943,12.2742964 10.0178647,11.6202853 C10.2498746,9.58496381 10.7318532,5.32503382 10.7658296,4.71227757 C10.8107269,3.90222594 6.11252708,3.81923084 5.96715688,4.37398759 C5.84241517,4.85036007 4.38046179,10.4304461 3.96862001,12.0024996 C3.90066733,12.2621626 3.84509175,12.2354683 3.81888143,11.9498389 C3.72010735,10.8743 3.47814727,8.2575275 3.41504836,7.75154857 C3.33520396,7.11112729 1.04228637,6.92669373 1.00952347,7.41083183 C0.93890122,8.45579358 0.675827272,9.08917727 0.0771156199,10.3132337 C-0.0779621042,10.6311389 0.000183478195,10.6199759 0.317619571,10.5321272 C0.981128957,10.3484217 1.39078654,9.15518507 1.43544116,9.78250187 C1.44539138,9.92155507 1.69414672,15.1830078 1.76695317,16.6900242 C1.78030102,16.9664319 1.89169487,17.0338957 2.06885722,17.0307409 C2.74692789,17.0188498 4.45472437,17.2115344 5.0517372,17.4030055 C5.19832084,17.4495993 5.28059212,17.4957077 5.36771716,17.3025378 C5.70456831,16.5543685 6.66828293,14.401592 6.66828293,14.401592 C6.66828293,14.401592 6.79448076,14.1516359 6.80006259,14.430713 C6.82069108,15.5259087 6.3945307,19.5361253 6.22610513,20.9123395 C6.18557621,21.2431065 6.30594953,21.300378 6.552278,21.2863028 C7.53370885,21.2290313 10.0826624,21.3787622 11.0667629,21.5685347 C11.3300795,21.6194966 11.5053003,21.6090615 11.6239748,21.2947964 C12.2379758,19.6691116 14.3481493,14.0870842 14.4131897,13.9019226 C14.4908499,13.6810877 14.5274958,13.6854558 14.5008001,13.9613782 C14.2952432,16.0728998 13.8203025,21.3227041 14.0887156,24.8470839 C14.1095868,25.1242196 14.1913727,25.1725121 14.4454672,25.160621 C15.4031146,25.117182 17.7469967,25.2550219 18.5976187,25.482409 C18.6847437,25.5054632 18.7609478,25.5304588 18.8225906,25.5319149 L18.8342396,25.5319149 C18.9201512,25.5297308 18.9759695,25.4763421 18.9900454,25.2977328 C19.1118748,23.7518883 19.5343949,19.3757167 20.7223534,17.7199401 C20.8383583,17.55759 20.8752469,17.5355065 20.8332618,17.7512452 C20.4837909,19.5455897 20.5699452,21.4518076 20.6340149,22.184931 C20.6539153,22.414745 20.7616688,22.4477489 20.910922,22.4380418 C21.6348608,22.3916908 23.8049782,22.512058 24.4825635,22.6838724 C24.6196823,22.718575 24.6927314,22.7241566 24.7381141,22.4921585 C24.9402733,21.4566611 25.6661535,18.1477774 26.4655683,17.2142038 C26.6053567,17.0511257 26.549053,17.0518537 26.5323075,17.255216 C26.5155621,17.4585783 26.375531,19.16289 26.375531,19.16289 C26.375531,19.16289 26.3687357,19.2500106 26.4745478,19.2849559 C26.7116541,19.2211322 28.2044288,19.4189129 28.7987721,19.6251873 C28.7987721,19.6251873 29.0019021,19.6470281 29.068156,19.465264 C29.8090829,17.424361 30.134285,16.9584236 30.7968236,16.1614764 C30.9028783,16.0340717 30.9460768,15.961997 30.9477756,15.9251103 L30.9477756,15.9207421 C30.9446207,15.8578891 30.8019201,15.9129765 30.6565499,15.9559301 C30.2260211,16.0826068 29.8585912,16.2308817 29.2885168,16.7256975 C29.2467744,16.7618562 29.2147396,16.7562747 29.1666873,16.6710955 C28.4910435,15.4662104 29.6862827,10.6105115 29.7127357,10.1875277 C29.7416156,9.72086223 27.4520956,9.28428857 27.163054,9.81623379 C26.9291026,10.2467406 25.9297129,11.8500992 25.5897068,13.2020458 C25.4542868,13.7403006 25.3091593,13.6672552 25.3047909,13.0474613 C25.2895015,10.9842321 25.9598062,6.41780269 26.115612,5.82106304 C26.2655933,5.24786294 21.6399572,4.90690352 21.2734981,5.36895813 C20.8825275,5.86183257 19.6394789,9.77910441 19.3565045,12.0296792 C19.2616134,12.7831874 19.1524038,12.7916811 19.1048369,12.0702061 C18.9240342,9.3269995 19.7901882,1.60602807 20.0350605,0.814905144 C20.2034861,0.270826129 17.6916638,0 15.6851182,0 C14.4748325,0 13.4482616,0.0985263516 13.3048329,0.295093703" id="path-2"></path>
    </defs>
    <g id="full-page" stroke="none" stroke-width="1" fill="none" fill-rule="evenodd">
        <g id="home-triangles" transform="translate(-115.000000, -31.000000)">
            <g id="navbar">
                <g id="logo" transform="translate(115.000000, 31.000000)">
                    <path d="M39.4837894,3.40740083 L39.4584139,22.9569078 L43.1355852,22.9569078 L43.1355852,15.4239401 C43.1355852,15.3197324 43.1873122,15.2672987 43.2897903,15.2672987 L45.39856,15.2672987 C48.6898935,15.2672987 51.0045952,12.5826299 51.0045952,9.27238482 C51.0045952,5.96180994 48.6898935,3.40740083 45.39856,3.40740083 L39.4837894,3.40740083 Z M43.1355852,11.383911 L43.1355852,7.29144814 C43.1355852,7.18691061 43.1873122,7.13447696 43.2897903,7.13447696 L45.39856,7.13447696 C46.9155599,7.13447696 47.3270986,8.46411517 47.3270986,9.27238482 C47.3270986,10.1063766 46.9155599,11.5402226 45.39856,11.5402226 L43.2897903,11.5402226 C43.1873122,11.5402226 43.1355852,11.4881187 43.1355852,11.383911 Z M53.7565365,3.40740083 L59.7994859,3.40740083 C63.3995548,3.40740083 65.6111279,6.2226591 65.6111279,9.53257444 C65.6111279,11.3314773 65.0707597,12.556578 63.8878706,13.7556267 C63.4252556,14.2245616 62.9109136,14.4857406 62.5764774,14.6938263 C62.5507766,14.6938263 62.5254011,14.7459302 62.5764774,14.8244158 L66.9999489,22.9569078 L62.7824094,22.9569078 L58.7965027,15.4499921 C58.7451011,15.3457843 58.6679986,15.2933507 58.5651952,15.2933507 L57.5879128,15.2933507 C57.4851095,15.2933507 57.4337078,15.3457843 57.4337078,15.4499921 L57.4337078,22.9569078 L53.7565365,22.9569078 L53.7565365,3.40740083 Z M57.4337078,11.800742 C57.4337078,11.9052795 57.4851095,11.9573834 57.5879128,11.9573834 L59.7994859,11.9573834 C61.1622808,11.9573834 61.9596574,10.8361607 61.9596574,9.53257444 C61.9596574,8.25569965 61.1622808,7.13447696 59.7994859,7.13447696 L57.5879128,7.13447696 C57.4851095,7.13447696 57.4337078,7.18691061 57.4337078,7.29144814 L57.4337078,11.800742 Z M67.9772313,13.1821543 C67.9772313,7.65617529 72.3743513,3.19865555 77.8261815,3.19865555 C83.2776864,3.19865555 87.6748064,7.65617529 87.6748064,13.1821543 C87.6748064,18.7084631 83.2776864,23.165653 77.8261815,23.165653 C72.3743513,23.165653 67.9772313,18.7084631 67.9772313,13.1821543 Z M71.6547279,13.1821543 C71.6547279,16.6229889 74.4317194,19.4382471 77.8261815,19.4382471 C81.2206437,19.4382471 83.9976351,16.6229889 83.9976351,13.1821543 C83.9976351,9.74164949 81.2206437,6.92672099 77.8261815,6.92672099 C74.4317194,6.92672099 71.6547279,9.74164949 71.6547279,13.1821543 Z M96.2608372,3.30319307 L97.9577429,3.30319307 L104.772368,22.8527 L102.303787,22.8527 L100.863564,18.6560294 C100.838188,18.5257697 100.760761,18.4736659 100.632256,18.4736659 L93.6377254,18.4736659 C93.4835204,18.4736659 93.4064179,18.5257697 93.3807171,18.6560294 L91.9151188,22.8527 L89.4976137,22.8527 L96.2608372,3.30319307 Z M94.2802463,15.9974126 C94.2802463,16.0755684 94.3319733,16.1276723 94.4090758,16.1276723 L99.8352052,16.1276723 C99.963384,16.1276723 100.015111,16.0755684 100.015111,15.9974126 C100.015111,15.9713606 99.9890849,15.9453087 99.9890849,15.9192567 L97.1867179,7.63012335 C97.1867179,7.57801947 97.1606917,7.55196753 97.1346656,7.55196753 C97.1089647,7.55196753 97.1089647,7.57801947 97.0839146,7.63012335 L94.3059471,15.9192567 C94.2802463,15.9453087 94.2802463,15.9713606 94.2802463,15.9974126 Z M114.390336,3.30319307 L116.704713,3.30319307 L116.704713,17.3531027 C116.704713,20.5070362 114.0559,23.0611155 110.970173,23.0611155 C107.807019,23.0611155 105.235634,20.4806545 105.235634,17.2746171 L105.235634,3.30319307 L107.55001,3.30319307 L107.55001,17.0401497 C107.55001,19.0474681 108.989908,20.7154517 110.970173,20.7154517 C112.924413,20.7154517 114.390336,19.151346 114.390336,17.1704094 L114.390336,3.30319307 Z M118.710679,3.30319307 L124.625124,3.30319307 C129.974151,3.30319307 134.216741,7.68222723 134.216741,13.0779465 C134.216741,18.4997178 129.974151,22.8527 124.625124,22.8527 L118.710679,22.8527 L118.710679,3.30319307 Z M121.025055,20.3507245 C121.025055,20.4546025 121.076457,20.5070362 121.17926,20.5070362 L124.625124,20.5070362 C128.611031,20.5070362 131.90269,17.0919238 131.90269,13.0779465 C131.90269,9.01153566 128.58533,5.64918667 124.573723,5.64918667 L121.17926,5.64918667 C121.076457,5.64918667 121.025055,5.67490884 121.025055,5.75339443 L121.025055,20.3507245 Z M136.248733,22.8527 L136.248733,3.32891524 L138.563435,3.32891524 L138.563435,22.8527 L136.248733,22.8527 Z M150.032514,3.09477756 C155.484019,3.09477756 159.881139,7.55196753 159.881139,13.0779465 C159.881139,18.6039255 155.484019,23.0611155 150.032514,23.0611155 C144.581009,23.0611155 140.183564,18.6039255 140.183564,13.0779465 C140.183564,7.55196753 144.581009,3.09477756 150.032514,3.09477756 Z M142.497615,13.0779465 C142.497615,17.2746171 145.892077,20.7154517 150.032514,20.7154517 C154.198001,20.7154517 157.566762,17.2746171 157.566762,13.0779465 C157.566762,8.85522402 154.198001,5.44044139 150.032514,5.44044139 C145.892077,5.44044139 142.497615,8.85522402 142.497615,13.0779465 Z" id="Combined-Shape" fill="#FFFFFF"></path>
                    <mask id="mask-3" fill="white">
                        <use xlink:href="#path-2"></use>
                    </mask>
                    <use id="Clip-2" fill="url(#linearGradient-1)" xlink:href="#path-2"></use>
                </g>
            </g>
        </g>
    </g>
</svg>